<svg width="28" height="28" viewBox="0 0 28 28" fill="none" xmlns="http://www.w3.org/2000/svg">
<g clip-path="url(#clip0_125_331)">
<path d="M25.0832 4.66666H22.5554V6.22221H24.8887V23.3333H3.11093V6.22221H5.44426V4.66666H2.91649C2.73467 4.66969 2.55524 4.70852 2.38843 4.78092C2.22162 4.85331 2.07071 4.95786 1.94431 5.08859C1.81792 5.21932 1.71851 5.37367 1.65178 5.54282C1.58504 5.71198 1.55229 5.89262 1.55538 6.07443V23.4811C1.55229 23.6629 1.58504 23.8436 1.65178 24.0127C1.71851 24.1819 1.81792 24.3362 1.94431 24.4669C2.07071 24.5977 2.22162 24.7022 2.38843 24.7746C2.55524 24.847 2.73467 24.8858 2.91649 24.8889H25.0832C25.265 24.8858 25.4444 24.847 25.6112 24.7746C25.778 24.7022 25.9289 24.5977 26.0553 24.4669C26.1817 24.3362 26.2811 24.1819 26.3479 24.0127C26.4146 23.8436 26.4474 23.6629 26.4443 23.4811V6.07443C26.4474 5.89262 26.4146 5.71198 26.3479 5.54282C26.2811 5.37367 26.1817 5.21932 26.0553 5.08859C25.9289 4.95786 25.778 4.85331 25.6112 4.78092C25.4444 4.70852 25.265 4.66969 25.0832 4.66666Z" fill="white"/>
<path d="M6.22217 10.8889H7.77772V12.4444H6.22217V10.8889Z" fill="white"/>
<path d="M10.8887 10.8889H12.4442V12.4444H10.8887V10.8889Z" fill="white"/>
<path d="M15.5557 10.8889H17.1112V12.4444H15.5557V10.8889Z" fill="white"/>
<path d="M20.2222 10.8889H21.7777V12.4444H20.2222V10.8889Z" fill="white"/>
<path d="M6.22217 14.7778H7.77772V16.3333H6.22217V14.7778Z" fill="white"/>
<path d="M10.8887 14.7778H12.4442V16.3333H10.8887V14.7778Z" fill="white"/>
<path d="M15.5557 14.7778H17.1112V16.3333H15.5557V14.7778Z" fill="white"/>
<path d="M20.2222 14.7778H21.7777V16.3333H20.2222V14.7778Z" fill="white"/>
<path d="M6.22217 18.6667H7.77772V20.2222H6.22217V18.6667Z" fill="white"/>
<path d="M10.8887 18.6667H12.4442V20.2222H10.8887V18.6667Z" fill="white"/>
<path d="M15.5557 18.6667H17.1112V20.2222H15.5557V18.6667Z" fill="white"/>
<path d="M20.2222 18.6667H21.7777V20.2222H20.2222V18.6667Z" fill="white"/>
<path d="M7.77778 7.77776C7.98406 7.77776 8.18189 7.69582 8.32775 7.54996C8.47361 7.4041 8.55556 7.20627 8.55556 6.99999V2.33332C8.55556 2.12704 8.47361 1.92921 8.32775 1.78335C8.18189 1.63749 7.98406 1.55554 7.77778 1.55554C7.5715 1.55554 7.37367 1.63749 7.22781 1.78335C7.08194 1.92921 7 2.12704 7 2.33332V6.99999C7 7.20627 7.08194 7.4041 7.22781 7.54996C7.37367 7.69582 7.5715 7.77776 7.77778 7.77776Z" fill="white"/>
<path d="M20.2221 7.77776C20.4284 7.77776 20.6262 7.69582 20.7721 7.54996C20.9179 7.4041 20.9999 7.20627 20.9999 6.99999V2.33332C20.9999 2.12704 20.9179 1.92921 20.7721 1.78335C20.6262 1.63749 20.4284 1.55554 20.2221 1.55554C20.0158 1.55554 19.818 1.63749 19.6721 1.78335C19.5263 1.92921 19.4443 2.12704 19.4443 2.33332V6.99999C19.4443 7.20627 19.5263 7.4041 19.6721 7.54996C19.818 7.69582 20.0158 7.77776 20.2221 7.77776Z" fill="white"/>
<path d="M10.1113 4.66666H17.8891V6.22221H10.1113V4.66666Z" fill="white"/>
</g>
<defs>
<clipPath id="clip0_125_331">
<rect width="28" height="28" fill="white"/>
</clipPath>
</defs>
</svg>
