<svg width="24" height="25" viewBox="0 0 24 25" fill="none" xmlns="http://www.w3.org/2000/svg">
<path d="M7.23389 20.3636C7.23389 20.3636 7.23389 24 11.9816 24C16.7293 24 16.7293 20.3636 16.7293 20.3636" stroke="#7B7878" stroke-width="2" stroke-linejoin="round"/>
<path d="M4.11124 7.88631L1.61936 17.8798C1.30468 19.1418 2.2593 20.3637 3.55994 20.3637H7.23377H16.5844H20.2582C21.5589 20.3637 22.5135 19.1418 22.1988 17.8798L19.7069 7.88631C19.7032 7.87122 19.6997 7.85789 19.6953 7.84297C19.5856 7.46996 17.923 2.18185 11.9091 2.18185C5.89518 2.18185 4.23263 7.46996 4.12283 7.84297C4.11844 7.85789 4.115 7.87122 4.11124 7.88631Z" stroke="#7B7878" stroke-width="2" stroke-linejoin="round"/>
<ellipse cx="19.5452" cy="3.27273" rx="3.27273" ry="3.27273" fill="#202852"/>
</svg>
