<svg width="23" height="21" viewBox="0 0 23 21" fill="none" xmlns="http://www.w3.org/2000/svg">
<g clip-path="url(#clip0_120_61)">
<path d="M2.3 2.33333H5.75L8.05 0H14.95L17.25 2.33333H20.7C21.31 2.33333 21.895 2.57917 22.3263 3.01675C22.7577 3.45434 23 4.04783 23 4.66667V18.6667C23 19.2855 22.7577 19.879 22.3263 20.3166C21.895 20.7542 21.31 21 20.7 21H2.3C1.69 21 1.10499 20.7542 0.673654 20.3166C0.242321 19.879 0 19.2855 0 18.6667V4.66667C0 4.04783 0.242321 3.45434 0.673654 3.01675C1.10499 2.57917 1.69 2.33333 2.3 2.33333ZM11.5 5.83333C9.97501 5.83333 8.51247 6.44791 7.43414 7.54188C6.3558 8.63584 5.75 10.1196 5.75 11.6667C5.75 13.2138 6.3558 14.6975 7.43414 15.7915C8.51247 16.8854 9.97501 17.5 11.5 17.5C13.025 17.5 14.4875 16.8854 15.5659 15.7915C16.6442 14.6975 17.25 13.2138 17.25 11.6667C17.25 10.1196 16.6442 8.63584 15.5659 7.54188C14.4875 6.44791 13.025 5.83333 11.5 5.83333ZM11.5 8.16667C12.415 8.16667 13.2925 8.53541 13.9395 9.19179C14.5865 9.84817 14.95 10.7384 14.95 11.6667C14.95 12.5949 14.5865 13.4852 13.9395 14.1415C13.2925 14.7979 12.415 15.1667 11.5 15.1667C10.585 15.1667 9.70748 14.7979 9.06048 14.1415C8.41348 13.4852 8.05 12.5949 8.05 11.6667C8.05 10.7384 8.41348 9.84817 9.06048 9.19179C9.70748 8.53541 10.585 8.16667 11.5 8.16667Z" fill="white"/>
</g>
<defs>
<clipPath id="clip0_120_61">
<rect width="23" height="21" fill="white"/>
</clipPath>
</defs>
</svg>
