<svg width="27" height="27" viewBox="0 0 27 27" fill="none" xmlns="http://www.w3.org/2000/svg">
<g clip-path="url(#clip0_120_79)">
<path d="M26.4326 14.4686C26.625 14.004 26.625 13.4134 26.625 12.2344C26.625 11.0554 26.625 10.4647 26.4326 10.0001C26.3054 9.69292 26.1189 9.41379 25.8838 9.17868C25.6487 8.94357 25.3696 8.75708 25.0624 8.62988C24.5978 8.4375 24.0071 8.4375 22.8281 8.4375H15.4875C14.07 8.4375 13.3613 8.4375 12.8201 8.71312C12.3434 8.95588 11.9559 9.34342 11.7131 9.82013C11.4375 10.3601 11.4375 11.0689 11.4375 12.4875V19.8281C11.4375 21.0071 11.4375 21.5978 11.6299 22.0624C11.8875 22.6823 12.3802 23.1761 13.0001 23.4326C13.4647 23.625 14.0554 23.625 15.2344 23.625C16.4134 23.625 17.004 23.625 17.4686 23.4326M26.4326 14.4686C26.3054 14.7758 26.1189 15.055 25.8838 15.2901C25.6487 15.5252 25.3696 15.7117 25.0624 15.8389C24.5978 16.0313 24.0071 16.0312 22.8281 16.0312C21.6491 16.0312 21.0585 16.0312 20.5939 16.2236C20.2867 16.3508 20.0075 16.5373 19.7724 16.7724C19.5373 17.0075 19.3508 17.2867 19.2236 17.5939C19.0312 18.0585 19.0312 18.6491 19.0312 19.8281C19.0312 21.0071 19.0313 21.5978 18.8389 22.0624C18.7117 22.3696 18.5252 22.6487 18.2901 22.8838C18.055 23.1189 17.7758 23.3054 17.4686 23.4326M26.4326 14.4686C25.8274 16.5554 24.7142 18.4595 23.1927 20.0105C21.6711 21.5615 19.7887 22.711 17.7139 23.3561L17.4686 23.4326M21.5625 8.4375V7.425C21.5625 6.0075 21.5625 5.29875 21.2869 4.75763C21.0444 4.28109 20.6573 3.89357 20.181 3.65062C19.6388 3.375 18.93 3.375 17.5125 3.375H10.425C9.0075 3.375 8.29875 3.375 7.75763 3.65062C7.28092 3.89338 6.89338 4.28092 6.65062 4.75763C6.375 5.29763 6.375 6.00637 6.375 7.425V14.5125C6.375 15.93 6.375 16.6387 6.65062 17.1799C6.89362 17.6569 7.28063 18.0439 7.75763 18.2869C8.29763 18.5625 9.0075 18.5625 10.4261 18.5625H11.4375" stroke="black" stroke-opacity="0.4" stroke-width="1.5" stroke-linecap="round" stroke-linejoin="round"/>
</g>
<defs>
<clipPath id="clip0_120_79">
<rect width="27" height="27" fill="white"/>
</clipPath>
</defs>
</svg>
